<svg xmlns="http://www.w3.org/2000/svg" xmlns:xlink="http://www.w3.org/1999/xlink" width="86.127" height="83.728" viewBox="0 0 86.127 83.728"><defs><style>.a{fill:url(#a);}.b{fill:#2f2f2f;opacity:0.134;}.c{fill:#21222b;}.d{fill:#64e6ba;}</style><linearGradient id="a" x1="0.739" y1="0.311" x2="0.71" y2="1.223" gradientUnits="objectBoundingBox"><stop offset="0" stop-color="#64e6ba"/><stop offset="1" stop-color="#00c481"/></linearGradient></defs><g transform="translate(0 0)"><path class="a" d="M50.548,25.815a15.744,15.744,0,0,1,18.547,0L96.414,45.726a15.744,15.744,0,0,1,5.7,17.574L91.663,95.581a15.744,15.744,0,0,1-14.978,10.893H42.959A15.744,15.744,0,0,1,27.981,95.581L17.525,63.3a15.744,15.744,0,0,1,5.7-17.574Z" transform="translate(-16.759 -22.794)"/><path class="b" d="M18.306,59.8,0,41.494a4.319,4.319,0,0,0,1.684.338H29.776l6.75,4.639a2.7,2.7,0,0,0,1.53.483,2.77,2.77,0,0,0,1.891-.76,2.681,2.681,0,0,0,.832-1.961V1.12A4.365,4.365,0,0,0,40.633,0l20.52,20.52L51.96,48.907A15.75,15.75,0,0,1,36.977,59.8Z" transform="translate(22.944 23.925)"/><path class="c" d="M4.342-43.025A4.343,4.343,0,0,0,0-38.682V-2.324A4.343,4.343,0,0,0,4.342,2.019H32.429l6.747,4.638a2.714,2.714,0,0,0,4.251-2.237v-43.1a4.342,4.342,0,0,0-4.342-4.343Z" transform="translate(21.245 64.811)"/><path class="d" d="M532.889,1556.194h10.048a.156.156,0,0,1,.156.156v3.675a.157.157,0,0,1-.156.156H532.889a.39.39,0,0,0-.389.39v1.658a.39.39,0,0,0,.389.39h9.877a.159.159,0,0,1,.156.18c-.52,3.685-2.653,4.133-10.156,4.14a.158.158,0,0,0-.158.156v5.05c0,4.8,2.511,7.717,7.459,7.717,4.561,0,7.236-2.341,7.414-7.057a.39.39,0,0,0-.391-.4h-2.319a.392.392,0,0,0-.389.382c-.1,2.73-1.345,4.418-4.276,4.418-3.213,0-4.357-2.067-4.357-4.984v-2.761a.158.158,0,0,1,.157-.155c6.728-.024,9.472-1.669,10.163-6.547a.156.156,0,0,1,.153-.135h4.424a.39.39,0,0,0,.389-.389v-1.658a.389.389,0,0,0-.389-.39h-4.22a.156.156,0,0,1-.156-.156v-3.676a.157.157,0,0,1,.156-.156h4.218a.389.389,0,0,0,.389-.389v-1.7a.39.39,0,0,0-.389-.389H532.889a.39.39,0,0,0-.389.389v1.695A.39.39,0,0,0,532.889,1556.194Z" transform="translate(-498.821 -1521.844)"/></g></svg>