<svg xmlns="http://www.w3.org/2000/svg" xmlns:xlink="http://www.w3.org/1999/xlink" width="189.264" height="66.727" viewBox="0 0 189.264 66.727"><defs><style>.a{fill:url(#a);}.b{fill:#2f2f2f;opacity:0.134;}.c{fill:#21222b;}.d{fill:#64e6ba;}.e{fill:#1f2029;}</style><linearGradient id="a" x1="0.739" y1="0.311" x2="0.71" y2="1.223" gradientUnits="objectBoundingBox"><stop offset="0" stop-color="#64e6ba"/><stop offset="1" stop-color="#00c481"/></linearGradient></defs><g transform="translate(-31.625 -31.281)"><g transform="translate(31.625 31.281)"><path class="a" d="M43.688,25.2a12.547,12.547,0,0,1,14.781,0L80.24,41.07a12.547,12.547,0,0,1,4.546,14.006L76.454,80.8a12.547,12.547,0,0,1-11.937,8.681H37.639A12.547,12.547,0,0,1,25.7,80.8L17.37,55.076A12.547,12.547,0,0,1,21.916,41.07Z" transform="translate(-16.759 -22.794)"/><path class="b" d="M14.591,47.66,0,33.07a3.445,3.445,0,0,0,1.34.268H23.732l5.379,3.7a2.139,2.139,0,0,0,1.219.384,2.173,2.173,0,0,0,2.17-2.167V.891A3.489,3.489,0,0,0,32.384,0L48.737,16.353,41.41,38.975A12.55,12.55,0,0,1,29.47,47.66Z" transform="translate(18.285 19.068)"/><path class="c" d="M3.461-43.025A3.461,3.461,0,0,0,0-39.563v28.975A3.461,3.461,0,0,0,3.461-7.127H25.844l5.377,3.7A2.163,2.163,0,0,0,34.61-5.213V-39.563a3.461,3.461,0,0,0-3.461-3.461Z" transform="translate(16.931 60.388)"/><path class="d" d="M532.81,1555.692h8.008a.124.124,0,0,1,.125.124v2.929a.125.125,0,0,1-.125.125H532.81a.311.311,0,0,0-.31.311v1.321a.311.311,0,0,0,.31.311h7.871a.127.127,0,0,1,.124.144c-.415,2.937-2.114,3.294-8.094,3.3a.126.126,0,0,0-.126.124v4.024c0,3.825,2,6.15,5.944,6.15,3.635,0,5.767-1.866,5.909-5.624a.311.311,0,0,0-.312-.32h-1.848a.313.313,0,0,0-.31.3c-.082,2.176-1.072,3.521-3.407,3.521-2.56,0-3.473-1.647-3.473-3.972v-2.2a.126.126,0,0,1,.125-.124c5.362-.02,7.549-1.33,8.1-5.218a.124.124,0,0,1,.122-.108h3.526a.31.31,0,0,0,.31-.31v-1.321a.31.31,0,0,0-.31-.311H543.6a.124.124,0,0,1-.124-.125v-2.929a.125.125,0,0,1,.124-.125h3.361a.31.31,0,0,0,.31-.31v-1.353a.311.311,0,0,0-.31-.31H532.81a.311.311,0,0,0-.31.31v1.351A.311.311,0,0,0,532.81,1555.692Z" transform="translate(-505.659 -1528.316)"/></g><path class="e" d="M-93.294-21.725h19.555v-1.093H-91.877L-73.86-49.135v-.931H-92.444v1.093h17.207L-93.294-22.7Zm33.969.486c7.855,0,14.252-6.438,14.252-14.859A14.216,14.216,0,0,0-59.325-50.552,14.207,14.207,0,0,0-73.536-36.1C-73.536-27.677-67.139-21.239-59.325-21.239Zm0-1.093c-7.207,0-13.118-5.952-13.118-13.766A13.119,13.119,0,0,1-59.325-49.459,13.127,13.127,0,0,1-46.167-36.1C-46.167-28.284-52.078-22.332-59.325-22.332Zm17.855.607h1.093V-48.609l18.989,26.884h1.417V-50.066h-1.093v26.924L-40.053-50.066H-41.47Zm39.313.486C5.7-21.239,12.1-27.677,12.1-36.1A14.216,14.216,0,0,0-2.157-50.552,14.207,14.207,0,0,0-16.368-36.1C-16.368-27.677-9.971-21.239-2.157-21.239Zm0-1.093c-7.207,0-13.118-5.952-13.118-13.766A13.119,13.119,0,0,1-2.157-49.459,13.127,13.127,0,0,1,11-36.1C11-28.284,5.091-22.332-2.157-22.332Z" transform="translate(208.794 101.396)"/></g></svg>